<svg xmlns="http://www.w3.org/2000/svg" xmlns:xlink="http://www.w3.org/1999/xlink" width="500" zoomAndPan="magnify" viewBox="0 0 375 374.999991" height="500" preserveAspectRatio="xMidYMid meet" version="1.2"><defs><clipPath id="8e92b24c56"><path d="M 27.449219 150 L 229 150 L 229 365.164062 L 27.449219 365.164062 Z M 27.449219 150 "/></clipPath><clipPath id="d4cef2ddb1"><path d="M 329 164 L 347.699219 164 L 347.699219 183 L 329 183 Z M 329 164 "/></clipPath><clipPath id="5eb8d0c233"><path d="M 209 9.664062 L 231 9.664062 L 231 31 L 209 31 Z M 209 9.664062 "/></clipPath></defs><g id="8ee6794852"><g clip-rule="nonzero" clip-path="url(#8e92b24c56)"><path style=" stroke:none;fill-rule:nonzero;fill:#50ade4;fill-opacity:1;" d="M 228.824219 245.828125 L 204.34375 260.359375 L 158.464844 287.613281 L 133.445312 302.449219 L 96.480469 324.417969 L 79.78125 334.308594 L 79.765625 334.328125 L 57.167969 347.765625 L 27.789062 365.183594 L 37.3125 342.875 L 41.632812 332.75 L 51.570312 309.421875 L 56.359375 298.132812 L 68.285156 270.195312 L 73.34375 258.300781 L 88.246094 223.375 L 94.257812 209.238281 L 105.949219 181.859375 L 111.097656 169.746094 L 119.417969 150.25 L 228.824219 245.828125 "/></g><path style=" stroke:none;fill-rule:nonzero;fill:#fddd0f;fill-opacity:1;" d="M 311.503906 214.382812 L 212.269531 213.414062 L 309.835938 195.246094 Z M 311.503906 214.382812 "/><path style=" stroke:none;fill-rule:nonzero;fill:#fddd0f;fill-opacity:1;" d="M 326.894531 144.570312 L 194.335938 197.753906 L 318.535156 127.261719 Z M 326.894531 144.570312 "/><path style=" stroke:none;fill-rule:nonzero;fill:#fddd0f;fill-opacity:1;" d="M 158.824219 63.292969 L 153.78125 162.3125 L 139.613281 64.171875 Z M 158.824219 63.292969 "/><path style=" stroke:none;fill-rule:nonzero;fill:#fddd0f;fill-opacity:1;" d="M 225.109375 45.609375 L 171.699219 177.988281 L 206.816406 39.640625 Z M 225.109375 45.609375 "/><path style=" stroke:none;fill-rule:nonzero;fill:#fddd0f;fill-opacity:1;" d="M 300.117188 77.019531 L 181.707031 186.714844 L 286.214844 63.742188 Z M 300.117188 77.019531 "/><path style=" stroke:none;fill-rule:nonzero;fill:#66cdf5;fill-opacity:1;" d="M 79.765625 334.328125 L 57.167969 347.765625 L 37.3125 342.875 L 41.632812 332.75 L 79.765625 334.328125 "/><path style=" stroke:none;fill-rule:nonzero;fill:#66cdf5;fill-opacity:1;" d="M 133.445312 302.449219 L 96.480469 324.417969 L 51.570312 309.421875 L 56.359375 298.132812 L 133.445312 302.449219 "/><path style=" stroke:none;fill-rule:nonzero;fill:#66cdf5;fill-opacity:1;" d="M 204.34375 260.359375 L 158.464844 287.613281 L 68.285156 270.195312 L 73.34375 258.300781 L 204.34375 260.359375 "/><path style=" stroke:none;fill-rule:nonzero;fill:#66cdf5;fill-opacity:1;" d="M 224.914062 242.421875 L 88.246094 223.375 L 94.257812 209.238281 L 177.511719 200.996094 L 224.914062 242.421875 "/><path style=" stroke:none;fill-rule:nonzero;fill:#66cdf5;fill-opacity:1;" d="M 165.046875 190.121094 L 105.949219 181.859375 L 111.097656 169.746094 L 138.628906 167.003906 L 165.046875 190.121094 "/><path style=" stroke:none;fill-rule:nonzero;fill:#fddd0f;fill-opacity:1;" d="M 307.074219 111.386719 L 306.25 103.824219 L 299.558594 100.222656 L 306.5 97.105469 L 307.863281 89.632812 L 312.976562 95.277344 L 320.507812 94.257812 L 316.722656 100.851562 L 320.023438 107.695312 L 312.582031 106.136719 L 307.074219 111.386719 "/><path style=" stroke:none;fill-rule:nonzero;fill:#f58611;fill-opacity:1;" d="M 287.507812 179.386719 L 288.421875 175.964844 L 286.109375 173.257812 L 289.640625 173.078125 L 291.507812 170.050781 L 292.78125 173.367188 L 296.222656 174.171875 L 293.480469 176.414062 L 293.765625 179.960938 L 290.773438 178.023438 L 287.507812 179.386719 "/><path style=" stroke:none;fill-rule:nonzero;fill:#f58611;fill-opacity:1;" d="M 225.667969 97 L 222.871094 85.976562 L 212.199219 82.035156 L 221.8125 75.960938 L 222.257812 64.601562 L 231.011719 71.875 L 241.96875 68.777344 L 237.753906 79.347656 L 244.070312 88.792969 L 232.714844 88.058594 L 225.667969 97 "/><path style=" stroke:none;fill-rule:nonzero;fill:#f8a62b;fill-opacity:1;" d="M 288.152344 49.480469 L 287.167969 45.554688 L 283.363281 44.140625 L 286.789062 41.972656 L 286.96875 37.921875 L 290.070312 40.519531 L 293.980469 39.425781 L 292.476562 43.1875 L 294.734375 46.558594 L 290.683594 46.289062 L 288.152344 49.480469 "/><path style=" stroke:none;fill-rule:nonzero;fill:#f8a62b;fill-opacity:1;" d="M 170.804688 101.53125 L 168.058594 94.917969 L 161.046875 93.449219 L 166.464844 88.792969 L 165.710938 81.679688 L 171.824219 85.386719 L 178.371094 82.464844 L 176.703125 89.4375 L 181.511719 94.742188 L 174.371094 95.332031 L 170.804688 101.53125 "/><g clip-rule="nonzero" clip-path="url(#d4cef2ddb1)"><path style=" stroke:none;fill-rule:nonzero;fill:#fddd0f;fill-opacity:1;" d="M 331.519531 180.980469 L 333.171875 174.851562 L 329.027344 170.015625 L 335.375 169.675781 L 338.695312 164.261719 L 340.988281 170.175781 L 347.179688 171.664062 L 342.246094 175.660156 L 342.746094 182.003906 L 337.402344 178.542969 L 331.519531 180.980469 "/></g><g clip-rule="nonzero" clip-path="url(#5eb8d0c233)"><path style=" stroke:none;fill-rule:nonzero;fill:#fddd0f;fill-opacity:1;" d="M 223.964844 30.253906 L 218.332031 25.683594 L 211.371094 27.726562 L 213.972656 20.96875 L 209.882812 15.003906 L 217.113281 15.378906 L 221.542969 9.644531 L 223.40625 16.652344 L 230.242188 19.070312 L 224.160156 23.011719 L 223.964844 30.253906 "/></g><path style=" stroke:none;fill-rule:nonzero;fill:#f8a62b;fill-opacity:1;" d="M 176.058594 53.636719 L 177.152344 49.515625 L 174.371094 46.289062 L 178.625 46.054688 L 180.847656 42.4375 L 182.390625 46.398438 L 186.53125 47.382812 L 183.214844 50.070312 L 183.554688 54.316406 L 179.984375 52.003906 L 176.058594 53.636719 "/><path style=" stroke:none;fill-rule:nonzero;fill:#f8a62b;fill-opacity:1;" d="M 264.371094 139.320312 L 265.464844 135.21875 L 262.703125 131.976562 L 266.953125 131.761719 L 269.175781 128.121094 L 270.703125 132.101562 L 274.84375 133.066406 L 271.546875 135.753906 L 271.886719 140.003906 L 268.300781 137.691406 L 264.371094 139.320312 "/></g></svg>